<svg width="64.000000" height="64.000061" viewBox="0 0 64 64.0001" fill="none" xmlns="http://www.w3.org/2000/svg" xmlns:xlink="http://www.w3.org/1999/xlink">
	<desc>
			Created with Pixso.
	</desc>
	<defs/>
	<path id="Vector" d="M63.5 64.0001L0.5 64.0001C0.223873 64.0001 0 63.7762 0 63.5001L0 16.0815C0 15.8054 0.223873 15.5815 0.5 15.5815L63.5 15.5815C63.7761 15.5815 64 15.8054 64 16.0815L64 63.5001C64 63.7762 63.7761 64.0001 63.5 64.0001Z" fill="#F3F3F3" fill-opacity="1.000000" fill-rule="nonzero"/>
	<path id="Vector" d="M60.1368 15.5815L60.1368 64.0001L63.5 64.0001C63.7761 64.0001 64 63.7762 64 63.5001L64 16.0815C64 15.8054 63.7761 15.5815 63.5 15.5815L60.1368 15.5815Z" fill="#E4E4E4" fill-opacity="1.000000" fill-rule="nonzero"/>
	<path id="Vector" d="M3.8631 59.6368L3.8631 19.9446C3.8631 19.6685 4.08697 19.4446 4.3631 19.4446L59.6367 19.4446C59.9128 19.4446 60.1367 19.6685 60.1367 19.9446L60.1367 59.6367C60.1367 59.9128 59.9128 60.1367 59.6367 60.1367L4.3631 60.1367C4.08697 60.1368 3.8631 59.913 3.8631 59.6368Z" fill="#29CEF6" fill-opacity="1.000000" fill-rule="nonzero"/>
	<path id="Vector" d="M56.2736 19.4446L56.2736 60.1367L59.6367 60.1367C59.9129 60.1367 60.1367 59.9128 60.1367 59.6367L60.1367 19.9446C60.1367 19.6685 59.9129 19.4446 59.6367 19.4446L56.2736 19.4446Z" fill="#22B5ED" fill-opacity="1.000000" fill-rule="nonzero"/>
	<path id="Vector" d="M60.1369 31.4008C57.7567 30.5043 55.2999 29.8201 53.0554 29.2098C32.1867 25.8481 35.0337 40.6217 22.3103 45.4446C17.333 46.7365 11.8007 44.0518 6.96778 45.7657C5.72078 46.3277 4.69403 47.0081 3.86328 47.7741L3.86328 59.6367C3.86328 59.9128 4.08715 60.1367 4.36328 60.1367L59.6369 60.1367C59.913 60.1367 60.1369 59.9128 60.1369 59.6367L60.1369 31.4008Z" fill="#FFD54F" fill-opacity="1.000000" fill-rule="nonzero"/>
	<path id="Vector" d="M56.2736 30.1177L56.2736 60.1367L59.6367 60.1367C59.9129 60.1367 60.1367 59.9128 60.1367 59.6367L60.1367 31.4008C58.856 30.9183 57.5539 30.4987 56.2736 30.1177Z" fill="#FFC328" fill-opacity="1.000000" fill-rule="nonzero"/>
	<path id="Vector" d="M3.8631 19.9446L3.8631 33.8587C6.30372 33.6711 8.77897 33.8841 11.2138 34.0135C26.945 35.559 25.4517 24.6802 36.6765 19.4446L4.3631 19.4446C4.08697 19.4446 3.8631 19.6685 3.8631 19.9446Z" fill="#9CCC65" fill-opacity="1.000000" fill-rule="nonzero"/>
	<path id="Vector" d="M32.8134 19.4446C22.859 24.0877 22.905 33.1674 12.0718 34.0857C26.8922 35.1551 25.6605 24.5829 36.6767 19.4446L32.8134 19.4446Z" fill="#8BC34A" fill-opacity="1.000000" fill-rule="nonzero"/>
	<path id="Vector" d="M57.8122 14.1175C57.8122 22.7003 51.816 24.8307 48.8921 29.9847C45.9682 35.1387 46.1165 38.6319 43.776 38.6319C41.5196 38.6319 41.5172 34.8823 38.6599 29.9847C35.5897 24.7225 29.7397 22.7003 29.7397 14.1175C29.7399 6.32062 36.0241 0 43.7761 0C51.5281 0 57.8122 6.32062 57.8122 14.1175Z" fill="#F75632" fill-opacity="1.000000" fill-rule="nonzero"/>
	<path id="Vector" d="M43.7761 0C43.1206 0 42.4761 0.0462646 41.8445 0.133606C48.6822 1.08038 53.9491 6.97974 53.9491 14.1174C53.9491 22.7001 47.9529 24.8306 45.029 29.9846C43.266 33.0921 42.6197 35.5942 41.8716 37.0927C42.3662 38.067 42.9019 38.6318 43.7761 38.6318C46.1165 38.6318 45.9682 35.1386 48.8921 29.9846C51.8161 24.8306 57.8122 22.7001 57.8122 14.1174C57.8122 6.32062 51.5281 0 43.7761 0Z" fill="#E33629" fill-opacity="1.000000" fill-rule="nonzero"/>
	<path id="Vector" d="M45.1019 42.8713L46.4925 41.4807C46.8586 41.1145 46.8586 40.5211 46.4924 40.1549C46.1264 39.7889 45.5327 39.7888 45.1666 40.155L43.7761 41.5457L42.3856 40.155C42.0195 39.7888 41.4259 39.7889 41.0599 40.1549C40.6936 40.5212 40.6936 41.1146 41.0597 41.4807L42.4504 42.8713L41.0597 44.2619C40.6936 44.6281 40.6936 45.2216 41.0599 45.5876C41.2429 45.7706 41.4829 45.8622 41.7227 45.8622C41.9626 45.8622 42.2026 45.7706 42.3857 45.5875L43.7762 44.1969L45.1667 45.5875C45.3499 45.7706 45.5897 45.8622 45.8297 45.8622C46.0696 45.8622 46.3096 45.7706 46.4926 45.5876C46.8589 45.2214 46.8589 44.6279 46.4927 44.2619L45.1019 42.8713Z" fill="#546E7A" fill-opacity="1.000000" fill-rule="nonzero"/>
	<path id="Vector" d="M44.4174 47.2303C43.9628 46.9826 43.3934 47.1506 43.1458 47.6055C43.0276 47.8225 42.9093 48.0358 42.7899 48.2449C42.5331 48.6945 42.6896 49.2671 43.1394 49.5237C43.286 49.6074 43.4456 49.6471 43.6033 49.6471C43.9288 49.6471 44.2454 49.4774 44.4184 49.1743C44.5439 48.9543 44.6683 48.7301 44.7925 48.5019C45.04 48.0472 44.8721 47.4778 44.4174 47.2303Z" fill="#546E7A" fill-opacity="1.000000" fill-rule="nonzero"/>
	<path id="Vector" d="M22.3966 51.4747C21.9149 51.4706 21.4256 51.4762 20.937 51.4927C20.4195 51.5104 20.0142 51.944 20.0319 52.4615C20.0492 52.9683 20.4652 53.3672 20.9682 53.3672C20.979 53.3672 20.9899 53.3671 21.0007 53.3667C21.4622 53.351 21.924 53.3455 22.379 53.3497L22.388 53.3497C22.9015 53.3497 23.3204 52.9355 23.3252 52.421C23.3301 51.9032 22.9142 51.4796 22.3966 51.4747Z" fill="#546E7A" fill-opacity="1.000000" fill-rule="nonzero"/>
	<path id="Vector" d="M17.3006 51.8159C16.8146 51.8862 16.3291 51.9678 15.8575 52.0583C15.349 52.156 15.0161 52.6475 15.1137 53.1559C15.1999 53.6046 15.5927 53.9166 16.0332 53.9166C16.092 53.9166 16.1515 53.9111 16.2112 53.8996C16.6547 53.8143 17.1115 53.7376 17.5691 53.6715C18.0816 53.5974 18.4367 53.1218 18.3627 52.6094C18.2886 52.097 17.8126 51.741 17.3006 51.8159Z" fill="#546E7A" fill-opacity="1.000000" fill-rule="nonzero"/>
	<path id="Vector" d="M12.3054 52.9745C11.8302 53.1318 11.3634 53.302 10.9175 53.4809C10.4369 53.6735 10.2035 54.2192 10.3962 54.6999C10.5431 55.0661 10.8949 55.2888 11.2666 55.2888C11.3829 55.2888 11.5009 55.267 11.6152 55.2211C12.0254 55.0568 12.4559 54.8997 12.8944 54.7546C13.386 54.592 13.6525 54.0616 13.4899 53.57C13.3274 53.0786 12.7975 52.8118 12.3054 52.9745Z" fill="#546E7A" fill-opacity="1.000000" fill-rule="nonzero"/>
	<path id="Vector" d="M37.0083 52.8662C36.603 52.938 36.1671 52.9864 35.713 53.01C35.1959 53.0371 34.7986 53.478 34.8255 53.9951C34.8516 54.4956 35.2656 54.8837 35.7609 54.8837C35.7774 54.8837 35.794 54.8834 35.8105 54.8825C36.3414 54.8547 36.8544 54.7975 37.335 54.7123C37.8449 54.6221 38.185 54.1356 38.0946 53.6259C38.0046 53.116 37.5183 52.7754 37.0083 52.8662Z" fill="#546E7A" fill-opacity="1.000000" fill-rule="nonzero"/>
	<path id="Vector" d="M40.8651 50.9138C40.5594 51.2204 40.2469 51.4826 39.9097 51.7156C39.4839 52.01 39.3774 52.594 39.6719 53.02C39.8539 53.2831 40.1464 53.4244 40.4439 53.4244C40.6277 53.4244 40.8135 53.3704 40.9762 53.2579C41.4016 52.9636 41.8109 52.6206 42.1925 52.2383C42.5581 51.8716 42.5575 51.278 42.191 50.9124C41.8244 50.5465 41.2309 50.5472 40.8651 50.9138Z" fill="#546E7A" fill-opacity="1.000000" fill-rule="nonzero"/>
	<path id="Vector" d="M32.3415 52.8367C31.919 52.7825 31.4699 52.7166 30.9688 52.6349C30.4576 52.5516 29.976 52.8984 29.8928 53.4094C29.8095 53.9204 30.1562 54.4022 30.6673 54.4854C31.1898 54.5706 31.6595 54.6395 32.1035 54.6964C32.1439 54.7015 32.184 54.7042 32.2238 54.7042C32.6885 54.7042 33.0919 54.3586 33.1525 53.8855C33.2182 53.3721 32.8553 52.9025 32.3415 52.8367Z" fill="#546E7A" fill-opacity="1.000000" fill-rule="nonzero"/>
	<path id="Vector" d="M27.4851 52.0142C26.9486 51.9199 26.483 51.843 26.0615 51.7794C25.5516 51.7024 25.0718 52.0544 24.9946 52.5665C24.9174 53.0785 25.2698 53.5561 25.7818 53.6334C26.1879 53.6946 26.6386 53.7691 27.1599 53.8608C27.2149 53.8705 27.2696 53.8751 27.3236 53.8751C27.7701 53.8751 28.1656 53.555 28.2459 53.1001C28.3356 52.5903 27.995 52.1041 27.4851 52.0142Z" fill="#546E7A" fill-opacity="1.000000" fill-rule="nonzero"/>
	<path id="Vector" d="M7.6011 55.1838C7.3756 55.3313 7.15448 55.4844 6.94348 55.6392C6.52597 55.9453 6.43573 56.532 6.74198 56.9495C6.92572 57.2 7.21022 57.3326 7.49873 57.3326C7.6911 57.3326 7.88535 57.2735 8.05247 57.151C8.2366 57.016 8.4301 56.882 8.62785 56.7525C9.0611 56.469 9.1826 55.888 8.89898 55.4548C8.61547 55.0217 8.0341 54.9 7.6011 55.1838Z" fill="#546E7A" fill-opacity="1.000000" fill-rule="nonzero"/>
	<path id="Vector" d="M50.1716 14.0295C50.1716 17.5616 47.3083 20.425 43.7761 20.425C40.244 20.425 37.3806 17.5616 37.3806 14.0295C37.3806 10.4974 40.244 7.63403 43.7761 7.63403C47.3083 7.63403 50.1716 10.4974 50.1716 14.0295Z" fill="#F3F3F3" fill-opacity="1.000000" fill-rule="evenodd"/>
</svg>
