<svg width="64.000000" height="64.000000" viewBox="0 0 64 64" fill="none" xmlns="http://www.w3.org/2000/svg" xmlns:xlink="http://www.w3.org/1999/xlink">
	<desc>
			Created with Pixso.
	</desc>
	<defs>
		<clipPath id="clip8_486">
			<rect id="price-tag 1" width="64.000000" height="64.000000" fill="white" fill-opacity="0"/>
		</clipPath>
		<linearGradient id="paint_linear_8_488_0" x1="2.791397" y1="22.403156" x2="38.982533" y2="58.594280" gradientUnits="userSpaceOnUse">
			<stop stop-color="#FEE45A"/>
			<stop offset="1.000000" stop-color="#FEA613"/>
		</linearGradient>
		<linearGradient id="paint_linear_8_489_0" x1="3.972000" y1="26.945156" x2="17.751331" y2="10.599065" gradientUnits="userSpaceOnUse">
			<stop stop-color="#FEA613" stop-opacity="0.000000"/>
			<stop offset="1.000000" stop-color="#E94444"/>
		</linearGradient>
		<linearGradient id="paint_linear_8_490_0" x1="11.843403" y1="48.861191" x2="25.487705" y2="42.241714" gradientUnits="userSpaceOnUse">
			<stop stop-color="#FEA613" stop-opacity="0.000000"/>
			<stop offset="1.000000" stop-color="#E94444"/>
		</linearGradient>
		<linearGradient id="paint_linear_8_491_0" x1="18.641188" y1="58.320816" x2="18.641188" y2="65.080849" gradientUnits="userSpaceOnUse">
			<stop stop-color="#FEA613" stop-opacity="0.000000"/>
			<stop offset="1.000000" stop-color="#E94444"/>
		</linearGradient>
		<linearGradient id="paint_linear_8_493_0" x1="12.441849" y1="8.970638" x2="66.532761" y2="63.061573" gradientUnits="userSpaceOnUse">
			<stop stop-color="#8AC9FE"/>
			<stop offset="1.000000" stop-color="#814AA0"/>
		</linearGradient>
		<linearGradient id="paint_linear_8_494_0" x1="14.940866" y1="26.423967" x2="4.630462" y2="17.203201" gradientUnits="userSpaceOnUse">
			<stop stop-color="#5B3374" stop-opacity="0.000000"/>
			<stop offset="1.000000" stop-color="#5B3374"/>
		</linearGradient>
		<linearGradient id="paint_linear_8_496_0" x1="51.258739" y1="43.402153" x2="28.712406" y2="32.173164" gradientUnits="userSpaceOnUse">
			<stop stop-color="#5B3374" stop-opacity="0.000000"/>
			<stop offset="1.000000" stop-color="#5B3374"/>
		</linearGradient>
		<linearGradient id="paint_linear_8_497_0" x1="34.703175" y1="36.099270" x2="19.587383" y2="28.782558" gradientUnits="userSpaceOnUse">
			<stop stop-color="#5B3374" stop-opacity="0.000000"/>
			<stop offset="1.000000" stop-color="#5B3374"/>
		</linearGradient>
		<linearGradient id="paint_linear_8_498_0" x1="56.996655" y1="46.838634" x2="37.987026" y2="37.643341" gradientUnits="userSpaceOnUse">
			<stop stop-color="#5B3374" stop-opacity="0.000000"/>
			<stop offset="1.000000" stop-color="#5B3374"/>
		</linearGradient>
		<linearGradient id="paint_linear_8_500_0" x1="21.819092" y1="33.076584" x2="33.448017" y2="33.076584" gradientUnits="userSpaceOnUse">
			<stop stop-color="#EAF6FF"/>
			<stop offset="1.000000" stop-color="#B3DAFE"/>
		</linearGradient>
		<linearGradient id="paint_linear_8_501_0" x1="4.582397" y1="2.374650" x2="16.272686" y2="14.065067" gradientUnits="userSpaceOnUse">
			<stop stop-color="#B3DAFE"/>
			<stop offset="1.000000" stop-color="#4FC123"/>
		</linearGradient>
		<linearGradient id="paint_linear_8_502_0" x1="16.272196" y1="15.360929" x2="20.603245" y2="11.030016" gradientUnits="userSpaceOnUse">
			<stop stop-color="#4FC123" stop-opacity="0.000000"/>
			<stop offset="1.000000" stop-color="#017B4E"/>
		</linearGradient>
		<linearGradient id="paint_linear_8_503_0" x1="13.843207" y1="1.206965" x2="17.175598" y2="6.160440" gradientUnits="userSpaceOnUse">
			<stop stop-color="#4FC123" stop-opacity="0.000000"/>
			<stop offset="1.000000" stop-color="#017B4E"/>
		</linearGradient>
	</defs>
	<rect id="price-tag 1" width="64.000000" height="64.000000" fill="#FFFFFF" fill-opacity="0"/>
	<g clip-path="url(#clip8_486)">
		<path id="Vector" d="M34.7023 13.4255L23.7179 6.26562L13.563 6.26562L2.57857 13.4242C0.971161 14.4724 0.00250244 16.2624 0.00250244 18.1808L0.00250244 58.3235C0.00250244 60.1391 0.852203 61.7548 2.17888 62.7937C3.14201 63.5488 4.35927 64 5.67905 64L31.6019 64C32.9529 64 34.1931 63.5299 35.1657 62.7424C36.4572 61.7022 37.2799 60.1095 37.2799 58.3235L37.2799 18.1808C37.2799 16.2624 36.31 14.4724 34.7023 13.4255ZM18.6412 19.3061C16.3568 19.3047 14.5047 17.4526 14.5047 15.1695C14.506 12.8851 16.3581 11.033 18.6412 11.033C20.9242 11.033 22.7763 12.8851 22.7777 15.1695C22.7777 17.4526 20.9256 19.3047 18.6412 19.3061Z" fill="url(#paint_linear_8_488_0)" fill-opacity="1.000000" fill-rule="nonzero"/>
		<path id="Vector" d="M6.57881 30.4673C14.9142 30.4673 21.7781 24.1712 22.6768 16.0756C22.2633 17.9229 20.614 19.3048 18.6412 19.3059C16.3568 19.3046 14.5047 17.4525 14.5047 15.1694C14.506 12.885 16.3581 11.0329 18.6412 11.0329C20.8231 11.0329 22.6102 12.7249 22.7655 14.8689C22.7728 14.6695 22.7777 14.4694 22.7777 14.2683C22.7777 11.3574 22.0093 8.62622 20.6652 6.26538L13.5631 6.26538L2.57869 13.424C0.971161 14.4723 0.00250244 16.2623 0.00250244 18.1807L0.00250244 29.0757C2.01222 29.9697 4.23729 30.4673 6.57881 30.4673Z" fill="url(#paint_linear_8_489_0)" fill-opacity="1.000000" fill-rule="nonzero"/>
		<path id="Vector" d="M5.9278 26.3713L5.9278 64.0001L31.602 64.0001C32.9529 64.0001 34.1931 63.53 35.1658 62.7424C36.4572 61.7022 37.2799 60.1095 37.2799 58.3235L37.2799 26.3713L5.9278 26.3713Z" fill="url(#paint_linear_8_490_0)" fill-opacity="1.000000" fill-rule="nonzero"/>
		<path id="Vector" d="M0.00250244 50.2217L0.00250244 58.3236C0.00250244 60.1392 0.852203 61.7549 2.17888 62.7938C3.14201 63.5489 4.35927 64.0001 5.67905 64.0001L31.6019 64.0001C32.9529 64.0001 34.1931 63.53 35.1657 62.7425C36.4572 61.7023 37.2799 60.1096 37.2799 58.3236L37.2799 50.2217L0.00250244 50.2217Z" fill="url(#paint_linear_8_491_0)" fill-opacity="1.000000" fill-rule="nonzero"/>
		<path id="Vector" d="M62.3346 32.5044L33.9492 4.11905C32.5929 2.76276 30.6425 2.18274 28.7645 2.5788L13.6256 5.77075C11.424 6.23407 9.70517 7.95291 9.24185 10.1545L6.05002 25.2932C5.65396 27.1711 6.23398 29.1216 7.59029 30.4779L35.9757 58.8633C37.2594 60.147 39.003 60.6882 40.6759 60.4849C41.8908 60.338 43.0703 59.7971 44.0039 58.8633L62.3345 40.5327C63.2894 39.5778 63.8341 38.3682 63.9649 37.1234C64.1418 35.4753 63.5972 33.7671 62.3346 32.5044ZM21.5655 18.0943C19.9492 19.7087 17.3303 19.7087 15.7158 18.0943C14.1013 16.478 14.1013 13.8591 15.7158 12.2445C17.3303 10.6301 19.9492 10.6301 21.5655 12.2445C23.1799 13.8591 23.1799 16.4781 21.5655 18.0943Z" fill="url(#paint_linear_8_493_0)" fill-opacity="1.000000" fill-rule="nonzero"/>
		<path id="Vector" d="M20.0542 19.052L20.0542 42.9417L7.59065 30.4782C6.23434 29.1219 5.65346 27.1711 6.05063 25.2933L7.7514 17.2229L15.0504 17.2229C15.2274 17.535 15.4503 17.8282 15.7164 18.0942C16.8891 19.2669 18.5912 19.583 20.0542 19.052Z" fill="url(#paint_linear_8_494_0)" fill-opacity="1.000000" fill-rule="nonzero"/>
		<path id="Vector" d="M63.965 37.1234C63.8341 38.3683 63.2895 39.5779 62.3346 40.5327L44.0039 58.8634C43.0703 59.7971 41.8908 60.3382 40.6759 60.485L29.0031 48.8122C28.3151 48.4284 27.9066 47.7035 27.9066 47.0332C27.9066 46.8016 27.9845 46.5292 28.1012 46.2976L41.7068 18.3489C42.0163 17.6893 42.6369 17.3799 43.3337 17.3799C44.1347 17.3799 44.9977 17.8237 45.3956 18.5541L63.965 37.1234Z" fill="url(#paint_linear_8_496_0)" fill-opacity="1.000000" fill-rule="nonzero"/>
		<path id="Vector" d="M57.309 45.5585L46.3895 56.478L23.7494 33.8378C22.6477 33.0155 21.9757 31.6858 21.9757 29.7069L21.9757 24.2021C21.9757 20.3648 24.4955 18.9695 27.7899 18.9695C29.8519 18.9695 31.6326 19.5301 32.6635 20.913L57.309 45.5585Z" fill="url(#paint_linear_8_497_0)" fill-opacity="1.000000" fill-rule="nonzero"/>
		<path id="Vector" d="M59.9668 42.9006L49.0472 53.8202L41.5088 46.2799C40.4071 45.4576 39.7351 44.1297 39.7351 42.1491L39.7351 36.6442C39.7351 32.8068 42.2549 31.4116 45.5494 31.4116C47.6114 31.4116 49.3921 31.9722 50.4212 33.3568L59.9668 42.9006Z" fill="url(#paint_linear_8_498_0)" fill-opacity="1.000000" fill-rule="nonzero"/>
		<path id="Vector" d="M21.8191 29.5492L21.8191 24.0448C21.8191 20.2073 24.3387 18.8119 27.6334 18.8119C30.8895 18.8119 33.448 20.2073 33.448 24.0448L33.448 29.5492C33.448 33.3867 30.8895 34.7821 27.6334 34.7821C24.3387 34.7821 21.8191 33.3867 21.8191 29.5492ZM29.5716 24.0448C29.5716 22.7657 28.8351 22.1842 27.6334 22.1842C26.4319 22.1842 25.7341 22.7657 25.7341 24.0448L25.7341 29.5492C25.7341 30.8283 26.4317 31.4098 27.6334 31.4098C28.8353 31.4098 29.5716 30.8283 29.5716 29.5492L29.5716 24.0448ZM45.4643 19.2771C45.4643 19.5097 45.4256 19.781 45.3092 20.0137L31.6648 47.9616C31.3935 48.5431 30.657 48.9306 29.9205 48.9306C28.6026 48.9306 27.7496 47.8454 27.7496 46.8763C27.7496 46.6437 27.8273 46.3723 27.9435 46.1397L41.5492 18.1918C41.8594 17.5329 42.4796 17.2227 43.1773 17.2227C44.2626 17.2225 45.4643 18.0366 45.4643 19.2771ZM39.6112 42.0307L39.6112 36.5264C39.6112 32.6889 42.1308 31.2935 45.4256 31.2935C48.6816 31.2935 51.2399 32.6889 51.2399 36.5264L51.2399 42.0307C51.2399 45.8683 48.6816 47.2638 45.4256 47.2638C42.1308 47.2638 39.6112 45.8683 39.6112 42.0307ZM47.3636 36.5264C47.3636 35.2473 46.6271 34.6658 45.4256 34.6658C44.224 34.6658 43.5261 35.2473 43.5261 36.5264L43.5261 42.0307C43.5261 43.3099 44.224 43.8913 45.4256 43.8913C46.6271 43.8913 47.3636 43.3099 47.3636 42.0307L47.3636 36.5264Z" fill="url(#paint_linear_8_500_0)" fill-opacity="1.000000" fill-rule="nonzero"/>
		<path id="Vector" d="M21.566 12.2447C20.7163 11.3976 19.5923 10.9951 18.4804 11.0384C18.0819 13.235 16.5784 15.0493 14.5682 15.8842C13.8035 16.2017 12.9646 16.3772 12.0852 16.3772C10.6303 16.3772 9.28476 15.8963 8.20128 15.0871C6.61395 13.8995 5.58456 12.0056 5.58456 9.87659C5.58456 6.29257 8.49983 3.37732 12.0852 3.37732C13.8117 3.37732 15.3815 4.05283 16.546 5.15515L20.28 4.36755C18.5034 1.73453 15.4921 0 12.0852 0C6.63818 0 2.20724 4.42969 2.20724 9.87659C2.20724 13.6537 4.33769 16.9433 7.46101 18.6035C8.84166 19.3384 10.4154 19.7545 12.0852 19.7545C13.6725 19.7545 15.1734 19.3776 16.5027 18.709C19.0262 17.4431 20.9352 15.125 21.6511 12.3353C21.624 12.3042 21.5956 12.2744 21.566 12.2447Z" fill="url(#paint_linear_8_501_0)" fill-opacity="1.000000" fill-rule="nonzero"/>
		<path id="Vector" d="M18.4805 11.0383C18.0819 13.2349 16.5784 15.0492 14.5682 15.8841C13.8036 16.2016 12.9646 16.3771 12.0852 16.3771C11.7326 16.3771 11.3866 16.3484 11.049 16.2941L11.049 19.6995C11.3898 19.7351 11.7352 19.7545 12.0852 19.7545C13.6725 19.7545 15.1734 19.3775 16.5027 18.7089C19.0262 17.4431 20.9352 15.1249 21.6511 12.3352C21.6241 12.3041 21.5957 12.2744 21.566 12.2448C20.7162 11.3977 19.5923 10.9951 18.4805 11.0383Z" fill="url(#paint_linear_8_502_0)" fill-opacity="1.000000" fill-rule="nonzero"/>
		<path id="Vector" d="M12.0852 0C11.7352 0 11.3897 0.0189514 11.049 0.0545959L11.049 3.46075C11.3866 3.40656 11.7325 3.37732 12.0852 3.37732C13.8117 3.37732 15.3815 4.05283 16.546 5.15515L20.28 4.36755C18.5034 1.73453 15.4921 0 12.0852 0Z" fill="url(#paint_linear_8_503_0)" fill-opacity="1.000000" fill-rule="nonzero"/>
	</g>
</svg>
